<svg xmlns="http://www.w3.org/2000/svg" xmlns:xlink="http://www.w3.org/1999/xlink" width="641" zoomAndPan="magnify" viewBox="0 0 480.75 480.749983" height="641" preserveAspectRatio="xMidYMid meet" version="1.0"><defs><clipPath id="dddfdec903"><path d="M 15 340 L 52 340 L 52 375 L 15 375 Z M 15 340 " clip-rule="nonzero"/></clipPath><clipPath id="7c581c7ecd"><path d="M 0 317.480469 L 115.65625 273.644531 L 156.039062 380.191406 L 40.382812 424.027344 Z M 0 317.480469 " clip-rule="nonzero"/></clipPath><clipPath id="0a7fcdf528"><path d="M 0 317.480469 L 115.65625 273.644531 L 156.039062 380.191406 L 40.382812 424.027344 Z M 0 317.480469 " clip-rule="nonzero"/></clipPath><clipPath id="3d23c3613c"><path d="M 0 317.480469 L 115.65625 273.644531 L 156.039062 380.191406 L 40.382812 424.027344 Z M 0 317.480469 " clip-rule="nonzero"/></clipPath><clipPath id="681a4b78ec"><path d="M 28 302 L 65 302 L 65 343 L 28 343 Z M 28 302 " clip-rule="nonzero"/></clipPath><clipPath id="fca6d5a6c6"><path d="M 0 317.480469 L 115.65625 273.644531 L 156.039062 380.191406 L 40.382812 424.027344 Z M 0 317.480469 " clip-rule="nonzero"/></clipPath><clipPath id="fc237838de"><path d="M 0 317.480469 L 115.65625 273.644531 L 156.039062 380.191406 L 40.382812 424.027344 Z M 0 317.480469 " clip-rule="nonzero"/></clipPath><clipPath id="92510c7456"><path d="M 0 317.480469 L 115.65625 273.644531 L 156.039062 380.191406 L 40.382812 424.027344 Z M 0 317.480469 " clip-rule="nonzero"/></clipPath><clipPath id="aee5b24501"><path d="M 66 287 L 100 287 L 100 332 L 66 332 Z M 66 287 " clip-rule="nonzero"/></clipPath><clipPath id="89606ce460"><path d="M 0 317.480469 L 115.65625 273.644531 L 156.039062 380.191406 L 40.382812 424.027344 Z M 0 317.480469 " clip-rule="nonzero"/></clipPath><clipPath id="df5505a3d0"><path d="M 0 317.480469 L 115.65625 273.644531 L 156.039062 380.191406 L 40.382812 424.027344 Z M 0 317.480469 " clip-rule="nonzero"/></clipPath><clipPath id="c6626d33eb"><path d="M 0 317.480469 L 115.65625 273.644531 L 156.039062 380.191406 L 40.382812 424.027344 Z M 0 317.480469 " clip-rule="nonzero"/></clipPath><clipPath id="9663ac7714"><path d="M 47 335 L 133 335 L 133 413 L 47 413 Z M 47 335 " clip-rule="nonzero"/></clipPath><clipPath id="f8a01ca8c6"><path d="M 0 317.480469 L 115.65625 273.644531 L 156.039062 380.191406 L 40.382812 424.027344 Z M 0 317.480469 " clip-rule="nonzero"/></clipPath><clipPath id="5b120e3d34"><path d="M 0 317.480469 L 115.65625 273.644531 L 156.039062 380.191406 L 40.382812 424.027344 Z M 0 317.480469 " clip-rule="nonzero"/></clipPath><clipPath id="1e50262bc9"><path d="M 0 317.480469 L 115.65625 273.644531 L 156.039062 380.191406 L 40.382812 424.027344 Z M 0 317.480469 " clip-rule="nonzero"/></clipPath><clipPath id="48517ecebd"><path d="M 30.964844 351.945312 L 113.011719 320.847656 L 138.078125 386.980469 L 56.027344 418.078125 Z M 30.964844 351.945312 " clip-rule="nonzero"/></clipPath><clipPath id="144ecc65b0"><path d="M 101 306 L 133 306 L 133 346 L 101 346 Z M 101 306 " clip-rule="nonzero"/></clipPath><clipPath id="568b16f5bb"><path d="M 0 317.480469 L 115.65625 273.644531 L 156.039062 380.191406 L 40.382812 424.027344 Z M 0 317.480469 " clip-rule="nonzero"/></clipPath><clipPath id="229e8693ac"><path d="M 0 317.480469 L 115.65625 273.644531 L 156.039062 380.191406 L 40.382812 424.027344 Z M 0 317.480469 " clip-rule="nonzero"/></clipPath><clipPath id="7ecb9db5a6"><path d="M 0 317.480469 L 115.65625 273.644531 L 156.039062 380.191406 L 40.382812 424.027344 Z M 0 317.480469 " clip-rule="nonzero"/></clipPath><clipPath id="77d22fe5d8"><path d="M 15 152 L 52 152 L 52 187 L 15 187 Z M 15 152 " clip-rule="nonzero"/></clipPath><clipPath id="9e6464e515"><path d="M 0 129.125 L 115.65625 85.289062 L 156.039062 191.832031 L 40.382812 235.667969 Z M 0 129.125 " clip-rule="nonzero"/></clipPath><clipPath id="e0e89f1ed0"><path d="M 0 129.125 L 115.65625 85.289062 L 156.039062 191.832031 L 40.382812 235.667969 Z M 0 129.125 " clip-rule="nonzero"/></clipPath><clipPath id="f512c66ecd"><path d="M 0 129.125 L 115.65625 85.289062 L 156.039062 191.832031 L 40.382812 235.667969 Z M 0 129.125 " clip-rule="nonzero"/></clipPath><clipPath id="5cd907a599"><path d="M 28 114 L 65 114 L 65 155 L 28 155 Z M 28 114 " clip-rule="nonzero"/></clipPath><clipPath id="3988f13d07"><path d="M 0 129.125 L 115.65625 85.289062 L 156.039062 191.832031 L 40.382812 235.667969 Z M 0 129.125 " clip-rule="nonzero"/></clipPath><clipPath id="a04000f664"><path d="M 0 129.125 L 115.65625 85.289062 L 156.039062 191.832031 L 40.382812 235.667969 Z M 0 129.125 " clip-rule="nonzero"/></clipPath><clipPath id="17eb933234"><path d="M 0 129.125 L 115.65625 85.289062 L 156.039062 191.832031 L 40.382812 235.667969 Z M 0 129.125 " clip-rule="nonzero"/></clipPath><clipPath id="33fbd7f2d6"><path d="M 66 99 L 100 99 L 100 143 L 66 143 Z M 66 99 " clip-rule="nonzero"/></clipPath><clipPath id="6ea36c9ebb"><path d="M 0 129.125 L 115.65625 85.289062 L 156.039062 191.832031 L 40.382812 235.667969 Z M 0 129.125 " clip-rule="nonzero"/></clipPath><clipPath id="11eef4303e"><path d="M 0 129.125 L 115.65625 85.289062 L 156.039062 191.832031 L 40.382812 235.667969 Z M 0 129.125 " clip-rule="nonzero"/></clipPath><clipPath id="7e830772a4"><path d="M 0 129.125 L 115.65625 85.289062 L 156.039062 191.832031 L 40.382812 235.667969 Z M 0 129.125 " clip-rule="nonzero"/></clipPath><clipPath id="e885daaebe"><path d="M 47 146 L 133 146 L 133 225 L 47 225 Z M 47 146 " clip-rule="nonzero"/></clipPath><clipPath id="0a6456fbdf"><path d="M 0 129.125 L 115.65625 85.289062 L 156.039062 191.832031 L 40.382812 235.667969 Z M 0 129.125 " clip-rule="nonzero"/></clipPath><clipPath id="ad0bf2f611"><path d="M 0 129.125 L 115.65625 85.289062 L 156.039062 191.832031 L 40.382812 235.667969 Z M 0 129.125 " clip-rule="nonzero"/></clipPath><clipPath id="506962ebce"><path d="M 0 129.125 L 115.65625 85.289062 L 156.039062 191.832031 L 40.382812 235.667969 Z M 0 129.125 " clip-rule="nonzero"/></clipPath><clipPath id="e340f2d097"><path d="M 30.964844 163.589844 L 113.011719 132.492188 L 138.078125 198.621094 L 56.027344 229.71875 Z M 30.964844 163.589844 " clip-rule="nonzero"/></clipPath><clipPath id="54c5513edd"><path d="M 101 118 L 133 118 L 133 157 L 101 157 Z M 101 118 " clip-rule="nonzero"/></clipPath><clipPath id="6951939288"><path d="M 0 129.125 L 115.65625 85.289062 L 156.039062 191.832031 L 40.382812 235.667969 Z M 0 129.125 " clip-rule="nonzero"/></clipPath><clipPath id="4408161163"><path d="M 0 129.125 L 115.65625 85.289062 L 156.039062 191.832031 L 40.382812 235.667969 Z M 0 129.125 " clip-rule="nonzero"/></clipPath><clipPath id="2619ba03a3"><path d="M 0 129.125 L 115.65625 85.289062 L 156.039062 191.832031 L 40.382812 235.667969 Z M 0 129.125 " clip-rule="nonzero"/></clipPath><clipPath id="397b5243ef"><path d="M 46 56.128906 L 445 56.128906 L 445 409 L 46 409 Z M 46 56.128906 " clip-rule="nonzero"/></clipPath></defs><g clip-path="url(#dddfdec903)"><g clip-path="url(#7c581c7ecd)"><g clip-path="url(#0a7fcdf528)"><g clip-path="url(#3d23c3613c)"><path fill="#000000" d="M 44.199219 373.386719 C 44.445312 373.265625 44.691406 373.144531 44.941406 373.035156 C 47.582031 371.609375 49.523438 369.332031 50.617188 366.550781 C 51.507812 364.320312 51.75 361.949219 51.4375 359.390625 C 51.226562 357.378906 50.539062 355.296875 49.46875 353.390625 C 47.476562 349.523438 44.433594 346.3125 40.445312 343.988281 C 39.183594 343.242188 37.796875 342.550781 36.332031 342.042969 C 33.0625 340.882812 30.070312 340.648438 27.074219 341.03125 C 25.125 341.359375 23.394531 341.871094 21.738281 342.820312 C 19.136719 344.355469 17.265625 346.464844 16.167969 349.234375 C 15.28125 351.476562 15.035156 354.140625 15.535156 356.773438 C 15.746094 358.175781 16.09375 359.511719 16.675781 360.746094 L 16.847656 361.117188 C 17.03125 361.484375 17.199219 361.855469 17.382812 362.222656 L 17.546875 362.582031 C 19.019531 365.351562 21.046875 367.695312 23.511719 369.683594 C 25.433594 371.179688 27.554688 372.425781 29.792969 373.320312 C 32.9375 374.53125 36.039062 375.011719 39.035156 374.632812 C 40.996094 374.601562 42.710938 374.082031 44.199219 373.386719 " fill-opacity="1" fill-rule="nonzero"/></g></g></g></g><g clip-path="url(#681a4b78ec)"><g clip-path="url(#fca6d5a6c6)"><g clip-path="url(#fc237838de)"><g clip-path="url(#92510c7456)"><path fill="#000000" d="M 33.703125 332.90625 C 35.625 335.664062 37.914062 337.851562 40.441406 339.511719 C 42.96875 341.171875 45.378906 342.144531 48.03125 342.59375 C 50.253906 343.0625 52.410156 342.972656 54.5 342.324219 L 55.519531 341.9375 C 57.5625 341.164062 59.285156 339.929688 60.511719 338.15625 C 61.835938 336.636719 62.835938 334.65625 63.484375 332.519531 C 64.40625 329.554688 64.496094 326.324219 63.753906 322.824219 C 63.351562 321.378906 62.949219 319.929688 62.371094 318.40625 C 61.9375 317.261719 61.375 316.164062 60.8125 315.070312 C 59.789062 313.132812 58.554688 311.417969 57.066406 309.800781 C 54.582031 307.105469 51.785156 305.113281 48.714844 303.953125 C 46.476562 303.054688 44.257812 302.589844 42.101562 302.679688 C 39.339844 302.707031 36.867188 303.5 34.679688 305.054688 C 32.574219 306.433594 31.015625 308.480469 29.949219 311.066406 C 29.046875 313.296875 28.699219 315.464844 28.625 317.964844 C 28.695312 320.84375 29.195312 323.707031 30.351562 326.761719 C 30.542969 327.269531 30.863281 327.730469 31.152344 328.492188 C 31.859375 329.96875 32.742188 331.523438 33.703125 332.90625 " fill-opacity="1" fill-rule="nonzero"/></g></g></g></g><g clip-path="url(#aee5b24501)"><g clip-path="url(#89606ce460)"><g clip-path="url(#df5505a3d0)"><g clip-path="url(#c6626d33eb)"><path fill="#000000" d="M 72.222656 325.140625 C 74.078125 327.34375 76.125 328.894531 78.539062 329.867188 C 81.65625 331.160156 84.820312 331.414062 87.933594 330.378906 L 88.699219 330.089844 C 90.230469 329.507812 91.488281 328.59375 93.019531 328.015625 C 94.855469 326.300781 96.285156 324.304688 97.527344 321.800781 C 98.71875 319.167969 99.433594 316.425781 99.664062 313.574219 C 100.023438 309.511719 99.566406 305.613281 98.25 301.753906 C 97.429688 299.589844 96.484375 297.476562 95.25 295.765625 C 93.601562 293.335938 91.886719 291.515625 89.761719 290.140625 C 86.257812 287.832031 82.519531 287.214844 78.753906 288.058594 C 78.625 288.109375 78.625 288.109375 78.496094 288.15625 L 75.5625 289.269531 C 74 290.152344 72.40625 291.339844 71.210938 292.808594 C 69.601562 294.726562 68.3125 297.105469 67.421875 299.769531 C 66.457031 302.609375 66.144531 305.632812 66.183594 308.816406 C 66.25 311.699219 66.882812 314.515625 67.765625 317.234375 C 68.199219 318.375 68.632812 319.519531 69.195312 320.617188 C 70.125 322.300781 71.132812 323.808594 72.222656 325.140625 " fill-opacity="1" fill-rule="nonzero"/></g></g></g></g><g clip-path="url(#9663ac7714)"><g clip-path="url(#f8a01ca8c6)"><g clip-path="url(#5b120e3d34)"><g clip-path="url(#1e50262bc9)"><g clip-path="url(#48517ecebd)"><path fill="#000000" d="M 120.664062 355.921875 C 118.089844 354.132812 115.179688 352.621094 111.984375 351.503906 C 109.746094 350.609375 107.460938 349.585938 105.382812 348.335938 C 103.125 347.011719 100.949219 345.507812 99.128906 344.164062 L 97.703125 343.105469 C 96.28125 342.046875 94.90625 341.113281 93.480469 340.054688 C 91.304688 338.550781 89.402344 337.382812 87.515625 336.644531 C 84.222656 335.273438 80.839844 334.8125 77.355469 335.261719 C 75.121094 335.527344 72.902344 336.222656 70.859375 336.996094 C 68.945312 337.722656 67.175781 338.828125 65.679688 340.269531 C 63.84375 341.980469 62.460938 344.105469 61.140625 346.785156 C 60.425781 348.367188 59.679688 350.246094 59.027344 352.382812 C 58.378906 354.519531 57.855469 356.609375 57.335938 358.699219 L 57.082031 359.957031 C 56.320312 362.570312 55.65625 365.441406 54.640625 368.152344 C 53.78125 370.511719 52.90625 372.441406 51.984375 374.246094 C 50.777344 376.449219 49.664062 378.90625 48.980469 381.34375 C 47.949219 384.789062 47.527344 388.292969 47.617188 391.605469 C 47.746094 393.878906 48.136719 396.058594 48.777344 398.144531 C 49.324219 399.96875 50.175781 401.828125 51.1875 403.335938 C 53.988281 407.652344 57.859375 410.546875 62.878906 411.84375 C 65.800781 412.625 68.742188 412.675781 71.773438 411.816406 C 72.203125 411.800781 72.460938 411.703125 72.84375 411.558594 L 74.757812 410.832031 C 75.90625 410.394531 77.007812 409.832031 77.851562 409.367188 C 80.214844 407.890625 82.523438 406.289062 84.582031 404.78125 L 84.710938 404.734375 C 86.6875 403.402344 88.617188 401.945312 90.640625 400.742188 C 91.488281 400.273438 92.539062 399.585938 93.6875 399.148438 C 95.21875 398.570312 96.625 398.035156 97.949219 397.679688 C 99.832031 397.257812 102.019531 396.863281 104.382812 396.550781 C 105.5 396.417969 106.792969 396.363281 107.914062 396.230469 C 109.460938 396.078125 111.136719 395.878906 112.8125 395.679688 C 114.488281 395.484375 116.292969 395.234375 118.082031 394.558594 L 121.144531 393.394531 C 121.398438 393.300781 121.480469 393.125 121.589844 392.644531 C 122.355469 392.355469 123.203125 391.890625 123.871094 391.34375 C 125.722656 390.0625 127.425781 388.398438 128.8125 386.273438 C 130.691406 383.527344 131.863281 380.464844 132.128906 377.308594 C 132.425781 373.855469 131.90625 370.5625 130.476562 367.175781 C 129.628906 365.316406 128.425781 363.300781 126.890625 361.558594 C 125.207031 359.433594 123.191406 357.582031 120.664062 355.921875 " fill-opacity="1" fill-rule="nonzero"/></g></g></g></g></g><g clip-path="url(#144ecc65b0)"><g clip-path="url(#568b16f5bb)"><g clip-path="url(#229e8693ac)"><g clip-path="url(#7ecb9db5a6)"><path fill="#000000" d="M 130.070312 313.363281 C 128.699219 311.0625 126.75 309.226562 124.585938 308.140625 C 121.929688 306.792969 119.144531 306.453125 116.175781 307.023438 C 114.296875 307.417969 112.671875 308.179688 110.980469 309.226562 C 108.488281 310.929688 106.414062 313.082031 104.730469 316.117188 C 103.972656 317.464844 103.394531 318.90625 102.945312 320.300781 C 101.496094 324.683594 101.347656 329.105469 102.40625 333.324219 C 102.878906 335.457031 103.746094 337.472656 104.921875 339.117188 C 106.382812 341.242188 108.125 342.863281 110.28125 343.933594 C 112.945312 345.296875 115.90625 345.714844 118.828125 345.03125 C 119.089844 344.945312 119.355469 344.875 119.617188 344.804688 C 121.195312 344.335938 122.824219 343.589844 124.296875 342.316406 C 126.792969 340.613281 128.796875 338.199219 130.363281 335.207031 C 131.441406 333.050781 132.195312 330.714844 132.644531 328.320312 C 133.167969 325.199219 133.132812 322.101562 132.398438 319.050781 L 132.296875 318.667969 C 132.179688 318.277344 132.074219 317.878906 131.953125 317.488281 L 131.847656 317.09375 C 131.46875 315.785156 130.828125 314.558594 130.070312 313.363281 " fill-opacity="1" fill-rule="nonzero"/></g></g></g></g><g clip-path="url(#77d22fe5d8)"><g clip-path="url(#9e6464e515)"><g clip-path="url(#e0e89f1ed0)"><g clip-path="url(#f512c66ecd)"><path fill="#000000" d="M 44.199219 185.03125 C 44.445312 184.90625 44.691406 184.785156 44.941406 184.675781 C 47.582031 183.253906 49.523438 180.976562 50.617188 178.191406 C 51.507812 175.964844 51.75 173.589844 51.4375 171.035156 C 51.226562 169.019531 50.539062 166.9375 49.46875 165.035156 C 47.476562 161.164062 44.433594 157.957031 40.445312 155.628906 C 39.183594 154.886719 37.796875 154.191406 36.332031 153.683594 C 33.0625 152.523438 30.070312 152.292969 27.074219 152.671875 C 25.125 153.003906 23.394531 153.515625 21.738281 154.460938 C 19.136719 156 17.265625 158.105469 16.167969 160.875 C 15.28125 163.117188 15.035156 165.785156 15.535156 168.414062 C 15.746094 169.820312 16.09375 171.15625 16.675781 172.386719 L 16.847656 172.761719 C 17.03125 173.128906 17.199219 173.5 17.382812 173.863281 L 17.546875 174.222656 C 19.019531 176.996094 21.046875 179.339844 23.511719 181.328125 C 25.433594 182.824219 27.554688 184.070312 29.792969 184.964844 C 32.9375 186.171875 36.039062 186.652344 39.035156 186.273438 C 40.996094 186.246094 42.710938 185.726562 44.199219 185.03125 " fill-opacity="1" fill-rule="nonzero"/></g></g></g></g><g clip-path="url(#5cd907a599)"><g clip-path="url(#3988f13d07)"><g clip-path="url(#a04000f664)"><g clip-path="url(#17eb933234)"><path fill="#000000" d="M 33.703125 144.546875 C 35.625 147.308594 37.914062 149.492188 40.441406 151.152344 C 42.96875 152.8125 45.378906 153.789062 48.03125 154.238281 C 50.253906 154.703125 52.410156 154.613281 54.5 153.964844 L 55.519531 153.578125 C 57.5625 152.804688 59.285156 151.570312 60.511719 149.796875 C 61.835938 148.28125 62.835938 146.300781 63.484375 144.164062 C 64.40625 141.199219 64.496094 137.964844 63.753906 134.46875 C 63.351562 133.019531 62.949219 131.574219 62.371094 130.046875 C 61.9375 128.902344 61.375 127.808594 60.8125 126.710938 C 59.789062 124.773438 58.554688 123.0625 57.066406 121.445312 C 54.582031 118.75 51.785156 116.757812 48.714844 115.59375 C 46.476562 114.699219 44.257812 114.230469 42.101562 114.320312 C 39.339844 114.351562 36.867188 115.144531 34.679688 116.699219 C 32.574219 118.078125 31.015625 120.121094 29.949219 122.707031 C 29.046875 124.941406 28.699219 127.105469 28.625 129.605469 C 28.695312 132.488281 29.195312 135.351562 30.351562 138.402344 C 30.542969 138.910156 30.863281 139.371094 31.152344 140.132812 C 31.859375 141.613281 32.742188 143.167969 33.703125 144.546875 " fill-opacity="1" fill-rule="nonzero"/></g></g></g></g><g clip-path="url(#33fbd7f2d6)"><g clip-path="url(#6ea36c9ebb)"><g clip-path="url(#11eef4303e)"><g clip-path="url(#7e830772a4)"><path fill="#000000" d="M 72.222656 136.78125 C 74.078125 138.984375 76.125 140.535156 78.539062 141.511719 C 81.65625 142.800781 84.820312 143.058594 87.933594 142.023438 L 88.699219 141.730469 C 90.230469 141.152344 91.488281 140.238281 93.019531 139.65625 C 94.855469 137.945312 96.285156 135.949219 97.527344 133.441406 C 98.71875 130.808594 99.433594 128.066406 99.664062 125.21875 C 100.023438 121.15625 99.566406 117.257812 98.25 113.394531 C 97.429688 111.234375 96.484375 109.121094 95.25 107.40625 C 93.601562 104.980469 91.886719 103.15625 89.761719 101.78125 C 86.257812 99.476562 82.519531 98.855469 78.753906 99.703125 C 78.625 99.75 78.625 99.75 78.496094 99.800781 L 75.5625 100.914062 C 74 101.796875 72.40625 102.980469 71.210938 104.453125 C 69.601562 106.371094 68.3125 108.75 67.421875 111.410156 C 66.457031 114.25 66.144531 117.277344 66.183594 120.460938 C 66.25 123.34375 66.882812 126.15625 67.765625 128.875 C 68.199219 130.019531 68.632812 131.164062 69.195312 132.257812 C 70.125 133.941406 71.132812 135.449219 72.222656 136.78125 " fill-opacity="1" fill-rule="nonzero"/></g></g></g></g><g clip-path="url(#e885daaebe)"><g clip-path="url(#0a6456fbdf)"><g clip-path="url(#ad0bf2f611)"><g clip-path="url(#506962ebce)"><g clip-path="url(#e340f2d097)"><path fill="#000000" d="M 120.664062 167.5625 C 118.089844 165.777344 115.179688 164.265625 111.984375 163.148438 C 109.746094 162.25 107.460938 161.226562 105.382812 159.980469 C 103.125 158.65625 100.949219 157.152344 99.128906 155.808594 L 97.703125 154.746094 C 96.28125 153.6875 94.90625 152.757812 93.480469 151.695312 C 91.304688 150.195312 89.402344 149.027344 87.515625 148.285156 C 84.222656 146.917969 80.839844 146.457031 77.355469 146.902344 C 75.121094 147.167969 72.902344 147.863281 70.859375 148.636719 C 68.945312 149.363281 67.175781 150.46875 65.679688 151.910156 C 63.84375 153.625 62.460938 155.75 61.140625 158.429688 C 60.425781 160.007812 59.679688 161.890625 59.027344 164.027344 C 58.378906 166.164062 57.855469 168.25 57.335938 170.339844 L 57.082031 171.597656 C 56.320312 174.214844 55.65625 177.082031 54.640625 179.792969 C 53.78125 182.15625 52.90625 184.085938 51.984375 185.890625 C 50.777344 188.089844 49.664062 190.550781 48.980469 192.988281 C 47.949219 196.433594 47.527344 199.9375 47.617188 203.246094 C 47.746094 205.523438 48.136719 207.703125 48.777344 209.785156 C 49.324219 211.613281 50.175781 213.472656 51.1875 214.980469 C 53.988281 219.296875 57.859375 222.191406 62.878906 223.488281 C 65.800781 224.269531 68.742188 224.320312 71.773438 223.460938 C 72.203125 223.441406 72.460938 223.34375 72.84375 223.199219 L 74.757812 222.476562 C 75.90625 222.039062 77.007812 221.476562 77.851562 221.011719 C 80.214844 219.535156 82.523438 217.929688 84.582031 216.425781 L 84.710938 216.375 C 86.6875 215.046875 88.617188 213.585938 90.640625 212.382812 C 91.488281 211.917969 92.539062 211.226562 93.6875 210.792969 C 95.21875 210.210938 96.625 209.679688 97.949219 209.324219 C 99.832031 208.898438 102.019531 208.507812 104.382812 208.191406 C 105.5 208.058594 106.792969 208.007812 107.914062 207.875 C 109.460938 207.722656 111.136719 207.523438 112.8125 207.324219 C 114.488281 207.125 116.292969 206.878906 118.082031 206.199219 L 121.144531 205.039062 C 121.398438 204.941406 121.480469 204.765625 121.589844 204.289062 C 122.355469 204 123.203125 203.53125 123.871094 202.988281 C 125.722656 201.703125 127.425781 200.039062 128.8125 197.917969 C 130.691406 195.167969 131.863281 192.105469 132.128906 188.953125 C 132.425781 185.496094 131.90625 182.203125 130.476562 178.820312 C 129.628906 176.960938 128.425781 174.945312 126.890625 173.203125 C 125.207031 171.074219 123.191406 169.222656 120.664062 167.5625 " fill-opacity="1" fill-rule="nonzero"/></g></g></g></g></g><g clip-path="url(#54c5513edd)"><g clip-path="url(#6951939288)"><g clip-path="url(#4408161163)"><g clip-path="url(#2619ba03a3)"><path fill="#000000" d="M 130.070312 125.003906 C 128.699219 122.703125 126.75 120.871094 124.585938 119.785156 C 121.929688 118.4375 119.144531 118.097656 116.175781 118.667969 C 114.296875 119.0625 112.671875 119.820312 110.980469 120.871094 C 108.488281 122.570312 106.414062 124.722656 104.730469 127.761719 C 103.972656 129.109375 103.394531 130.550781 102.945312 131.941406 C 101.496094 136.328125 101.347656 140.746094 102.40625 144.96875 C 102.878906 147.101562 103.746094 149.113281 104.921875 150.761719 C 106.382812 152.882812 108.125 154.507812 110.28125 155.578125 C 112.945312 156.9375 115.90625 157.359375 118.828125 156.671875 C 119.089844 156.589844 119.355469 156.515625 119.617188 156.445312 C 121.195312 155.980469 122.824219 155.230469 124.296875 153.960938 C 126.792969 152.257812 128.796875 149.839844 130.363281 146.847656 C 131.441406 144.695312 132.195312 142.359375 132.644531 139.964844 C 133.167969 136.84375 133.132812 133.746094 132.398438 130.691406 L 132.296875 130.308594 C 132.179688 129.917969 132.074219 129.523438 131.953125 129.132812 L 131.847656 128.738281 C 131.46875 127.425781 130.828125 126.199219 130.070312 125.003906 " fill-opacity="1" fill-rule="nonzero"/></g></g></g></g><g clip-path="url(#397b5243ef)"><path fill="#000000" d="M 231.789062 205.09375 C 237.347656 206.28125 243.222656 207.085938 249.304688 207.644531 C 255.457031 208.171875 260.875 208.449219 265.59375 208.449219 C 286.183594 208.449219 302.261719 202.367188 313.832031 190.269531 C 325.332031 178.175781 331.136719 159.925781 331.136719 135.417969 C 331.136719 121.1875 329.738281 109.371094 326.941406 99.933594 C 324.144531 90.460938 319.738281 82.90625 313.832031 77.210938 C 307.820312 71.476562 300.058594 67.523438 290.445312 65.324219 C 280.832031 63.050781 269.332031 61.964844 255.980469 61.964844 C 250.703125 61.964844 245.949219 62.105469 241.613281 62.421875 C 237.277344 62.699219 233.992188 62.945312 231.789062 63.226562 Z M 178.0625 219.113281 C 181.945312 220.371094 185.964844 221.839844 190.089844 223.660156 L 190.089844 63.226562 L 143.738281 63.226562 L 143.738281 57.351562 L 222.179688 57.351562 C 226.058594 57.351562 229.9375 57.28125 233.816406 57.210938 C 237.769531 57.070312 241.648438 56.863281 245.5625 56.546875 C 249.445312 56.546875 253.253906 56.476562 256.992188 56.335938 C 260.804688 56.199219 264.613281 56.128906 268.496094 56.128906 C 284.328125 56.128906 298.976562 58.050781 312.46875 61.757812 C 326.03125 65.496094 337.671875 70.847656 347.597656 77.804688 C 357.421875 84.761719 365.183594 93.117188 370.773438 102.871094 C 376.261719 112.625 379.058594 123.460938 379.058594 135.417969 C 379.058594 147.96875 375.914062 159.015625 369.445312 168.769531 C 363.085938 178.523438 354.554688 186.738281 344 193.417969 C 333.441406 200.09375 321.136719 205.234375 307.050781 208.90625 C 293.035156 212.507812 278.386719 214.324219 263.078125 214.324219 C 259.195312 214.324219 254.199219 213.972656 248.046875 213.238281 C 241.960938 212.574219 236.542969 211.839844 231.753906 210.96875 L 231.753906 247.1875 C 289.152344 284.488281 355.777344 339.9375 401.851562 321.898438 C 480.433594 291.167969 410.484375 166.882812 367.839844 218.066406 C 362.839844 238.726562 348.542969 239.914062 339.246094 233.167969 C 329.492188 226.28125 328.757812 208.835938 344.871094 202.226562 C 384.234375 186.25 419.121094 206.316406 434.816406 235.964844 C 448.832031 262.5 448.167969 296.167969 426.003906 316.09375 C 388.707031 349.515625 343.300781 327.910156 307.539062 306.058594 C 226.09375 256.347656 108.957031 164.261719 61.207031 271.660156 C 30.128906 341.546875 87.25 415.941406 145.660156 394.335938 C 151.289062 392.203125 156.496094 388.601562 160.96875 382.832031 C 166.25 356.4375 184.285156 354.304688 196.449219 362.3125 C 209.070312 370.667969 211.097656 393.179688 190.71875 401.816406 C 169.078125 410.976562 135.941406 410.382812 108.746094 401.675781 C 0.0664062 366.714844 40.371094 176.8125 178.0625 219.113281 Z M 143.738281 348.746094 L 190.054688 348.746094 L 190.054688 246.835938 C 205.292969 253.722656 219.730469 261.941406 231.753906 269.035156 L 231.753906 348.746094 L 278.074219 348.746094 L 278.074219 354.550781 L 143.738281 354.550781 Z M 143.738281 348.746094 " fill-opacity="1" fill-rule="evenodd"/></g></svg>