<svg xmlns="http://www.w3.org/2000/svg" xmlns:xlink="http://www.w3.org/1999/xlink" width="1920" zoomAndPan="magnify" viewBox="0 0 1440 809.999993" height="1080" preserveAspectRatio="xMidYMid meet" version="1.0"><defs><g/><clipPath id="076c8f5af8"><path d="M 282 166.113281 L 760 166.113281 L 760 590 L 282 590 Z M 282 166.113281 " clip-rule="nonzero"/></clipPath><clipPath id="95e3dd0d1d"><path d="M 95 517 L 149 517 L 149 570 L 95 570 Z M 95 517 " clip-rule="nonzero"/></clipPath><clipPath id="a77b6e6b22"><path d="M 76.644531 479.484375 L 254.355469 427.175781 L 302.644531 591.214844 L 124.933594 643.527344 Z M 76.644531 479.484375 " clip-rule="nonzero"/></clipPath><clipPath id="228c60158b"><path d="M 76.644531 479.484375 L 254.355469 427.175781 L 302.644531 591.214844 L 124.933594 643.527344 Z M 76.644531 479.484375 " clip-rule="nonzero"/></clipPath><clipPath id="299ba66859"><path d="M 76.644531 479.484375 L 254.355469 427.175781 L 302.644531 591.214844 L 124.933594 643.527344 Z M 76.644531 479.484375 " clip-rule="nonzero"/></clipPath><clipPath id="0f7890bf86"><path d="M 119 462 L 172 462 L 172 524 L 119 524 Z M 119 462 " clip-rule="nonzero"/></clipPath><clipPath id="6b7f0f75b3"><path d="M 76.644531 479.484375 L 254.355469 427.175781 L 302.644531 591.214844 L 124.933594 643.527344 Z M 76.644531 479.484375 " clip-rule="nonzero"/></clipPath><clipPath id="5b554208b2"><path d="M 76.644531 479.484375 L 254.355469 427.175781 L 302.644531 591.214844 L 124.933594 643.527344 Z M 76.644531 479.484375 " clip-rule="nonzero"/></clipPath><clipPath id="f1a40def06"><path d="M 76.644531 479.484375 L 254.355469 427.175781 L 302.644531 591.214844 L 124.933594 643.527344 Z M 76.644531 479.484375 " clip-rule="nonzero"/></clipPath><clipPath id="c47e6928bc"><path d="M 176 444 L 227 444 L 227 510 L 176 510 Z M 176 444 " clip-rule="nonzero"/></clipPath><clipPath id="940ceb50ed"><path d="M 76.644531 479.484375 L 254.355469 427.175781 L 302.644531 591.214844 L 124.933594 643.527344 Z M 76.644531 479.484375 " clip-rule="nonzero"/></clipPath><clipPath id="f206df0d1b"><path d="M 76.644531 479.484375 L 254.355469 427.175781 L 302.644531 591.214844 L 124.933594 643.527344 Z M 76.644531 479.484375 " clip-rule="nonzero"/></clipPath><clipPath id="8cc53b0a02"><path d="M 76.644531 479.484375 L 254.355469 427.175781 L 302.644531 591.214844 L 124.933594 643.527344 Z M 76.644531 479.484375 " clip-rule="nonzero"/></clipPath><clipPath id="8d066ffabc"><path d="M 139 514 L 268 514 L 268 630 L 139 630 Z M 139 514 " clip-rule="nonzero"/></clipPath><clipPath id="5f7b1822c1"><path d="M 76.644531 479.484375 L 254.355469 427.175781 L 302.644531 591.214844 L 124.933594 643.527344 Z M 76.644531 479.484375 " clip-rule="nonzero"/></clipPath><clipPath id="670de35ea5"><path d="M 76.644531 479.484375 L 254.355469 427.175781 L 302.644531 591.214844 L 124.933594 643.527344 Z M 76.644531 479.484375 " clip-rule="nonzero"/></clipPath><clipPath id="e374f4a774"><path d="M 76.644531 479.484375 L 254.355469 427.175781 L 302.644531 591.214844 L 124.933594 643.527344 Z M 76.644531 479.484375 " clip-rule="nonzero"/></clipPath><clipPath id="40821e70c6"><path d="M 119.007812 534.601562 L 245.070312 497.492188 L 275.042969 599.3125 L 148.976562 636.417969 Z M 119.007812 534.601562 " clip-rule="nonzero"/></clipPath><clipPath id="5e0a41d0eb"><path d="M 227 477 L 275 477 L 275 535 L 227 535 Z M 227 477 " clip-rule="nonzero"/></clipPath><clipPath id="365d43362f"><path d="M 76.644531 479.484375 L 254.355469 427.175781 L 302.644531 591.214844 L 124.933594 643.527344 Z M 76.644531 479.484375 " clip-rule="nonzero"/></clipPath><clipPath id="8e9f94907b"><path d="M 76.644531 479.484375 L 254.355469 427.175781 L 302.644531 591.214844 L 124.933594 643.527344 Z M 76.644531 479.484375 " clip-rule="nonzero"/></clipPath><clipPath id="7e76f2a968"><path d="M 76.644531 479.484375 L 254.355469 427.175781 L 302.644531 591.214844 L 124.933594 643.527344 Z M 76.644531 479.484375 " clip-rule="nonzero"/></clipPath><clipPath id="628a6fa836"><path d="M 162 262 L 216 262 L 216 314 L 162 314 Z M 162 262 " clip-rule="nonzero"/></clipPath><clipPath id="ea88d36339"><path d="M 142.882812 224.308594 L 320.042969 170.160156 L 370.027344 333.695312 L 192.867188 387.839844 Z M 142.882812 224.308594 " clip-rule="nonzero"/></clipPath><clipPath id="b77127fb65"><path d="M 142.882812 224.308594 L 320.042969 170.160156 L 370.027344 333.695312 L 192.867188 387.839844 Z M 142.882812 224.308594 " clip-rule="nonzero"/></clipPath><clipPath id="900bded5f6"><path d="M 142.882812 224.308594 L 320.042969 170.160156 L 370.027344 333.695312 L 192.867188 387.839844 Z M 142.882812 224.308594 " clip-rule="nonzero"/></clipPath><clipPath id="a3475f4584"><path d="M 185 206 L 239 206 L 239 268 L 185 268 Z M 185 206 " clip-rule="nonzero"/></clipPath><clipPath id="978c4a9111"><path d="M 142.882812 224.308594 L 320.042969 170.160156 L 370.027344 333.695312 L 192.867188 387.839844 Z M 142.882812 224.308594 " clip-rule="nonzero"/></clipPath><clipPath id="a426e388ee"><path d="M 142.882812 224.308594 L 320.042969 170.160156 L 370.027344 333.695312 L 192.867188 387.839844 Z M 142.882812 224.308594 " clip-rule="nonzero"/></clipPath><clipPath id="c99794cc34"><path d="M 142.882812 224.308594 L 320.042969 170.160156 L 370.027344 333.695312 L 192.867188 387.839844 Z M 142.882812 224.308594 " clip-rule="nonzero"/></clipPath><clipPath id="521b185dc9"><path d="M 242 187 L 293 187 L 293 253 L 242 253 Z M 242 187 " clip-rule="nonzero"/></clipPath><clipPath id="20f95969cc"><path d="M 142.882812 224.308594 L 320.042969 170.160156 L 370.027344 333.695312 L 192.867188 387.839844 Z M 142.882812 224.308594 " clip-rule="nonzero"/></clipPath><clipPath id="973a908843"><path d="M 142.882812 224.308594 L 320.042969 170.160156 L 370.027344 333.695312 L 192.867188 387.839844 Z M 142.882812 224.308594 " clip-rule="nonzero"/></clipPath><clipPath id="50b5b0514e"><path d="M 142.882812 224.308594 L 320.042969 170.160156 L 370.027344 333.695312 L 192.867188 387.839844 Z M 142.882812 224.308594 " clip-rule="nonzero"/></clipPath><clipPath id="e97f8c2076"><path d="M 206 258 L 335 258 L 335 374 L 206 374 Z M 206 258 " clip-rule="nonzero"/></clipPath><clipPath id="38cd635c5a"><path d="M 142.882812 224.308594 L 320.042969 170.160156 L 370.027344 333.695312 L 192.867188 387.839844 Z M 142.882812 224.308594 " clip-rule="nonzero"/></clipPath><clipPath id="ab53cd7595"><path d="M 142.882812 224.308594 L 320.042969 170.160156 L 370.027344 333.695312 L 192.867188 387.839844 Z M 142.882812 224.308594 " clip-rule="nonzero"/></clipPath><clipPath id="9115d5cbd3"><path d="M 142.882812 224.308594 L 320.042969 170.160156 L 370.027344 333.695312 L 192.867188 387.839844 Z M 142.882812 224.308594 " clip-rule="nonzero"/></clipPath><clipPath id="effdc08ac4"><path d="M 185.8125 278.980469 L 311.484375 240.570312 L 342.507812 342.074219 L 216.835938 380.484375 Z M 185.8125 278.980469 " clip-rule="nonzero"/></clipPath><clipPath id="db61510177"><path d="M 293 220 L 342 220 L 342 278 L 293 278 Z M 293 220 " clip-rule="nonzero"/></clipPath><clipPath id="cb1d67f809"><path d="M 142.882812 224.308594 L 320.042969 170.160156 L 370.027344 333.695312 L 192.867188 387.839844 Z M 142.882812 224.308594 " clip-rule="nonzero"/></clipPath><clipPath id="54b83878ac"><path d="M 142.882812 224.308594 L 320.042969 170.160156 L 370.027344 333.695312 L 192.867188 387.839844 Z M 142.882812 224.308594 " clip-rule="nonzero"/></clipPath><clipPath id="46e35c270d"><path d="M 142.882812 224.308594 L 320.042969 170.160156 L 370.027344 333.695312 L 192.867188 387.839844 Z M 142.882812 224.308594 " clip-rule="nonzero"/></clipPath></defs><g clip-path="url(#076c8f5af8)"><path fill="#000000" d="M 504.804688 344.964844 C 511.476562 346.394531 518.527344 347.359375 525.828125 348.03125 C 533.210938 348.660156 539.714844 348.996094 545.378906 348.996094 C 570.09375 348.996094 589.394531 341.691406 603.28125 327.167969 C 617.085938 312.644531 624.050781 290.734375 624.050781 261.3125 C 624.050781 244.226562 622.375 230.039062 619.015625 218.707031 C 615.660156 207.332031 610.375 198.265625 603.28125 191.425781 C 596.066406 184.539062 586.75 179.796875 575.210938 177.152344 C 563.671875 174.425781 549.871094 173.125 533.839844 173.125 C 527.503906 173.125 521.800781 173.292969 516.597656 173.667969 C 511.394531 174.003906 507.449219 174.296875 504.804688 174.632812 Z M 440.316406 361.796875 C 444.972656 363.308594 449.796875 365.070312 454.75 367.253906 L 454.75 174.632812 L 399.113281 174.632812 L 399.113281 167.582031 L 493.265625 167.582031 C 497.925781 167.582031 502.582031 167.5 507.238281 167.414062 C 511.980469 167.246094 516.636719 166.996094 521.335938 166.617188 C 525.996094 166.617188 530.570312 166.53125 535.058594 166.367188 C 539.632812 166.199219 544.203125 166.113281 548.863281 166.113281 C 567.871094 166.113281 585.449219 168.421875 601.644531 172.871094 C 617.925781 177.363281 631.898438 183.785156 643.8125 192.136719 C 655.605469 200.492188 664.917969 210.523438 671.632812 222.234375 C 678.21875 233.945312 681.578125 246.957031 681.578125 261.3125 C 681.578125 276.378906 677.800781 289.644531 670.039062 301.355469 C 662.402344 313.066406 652.164062 322.929688 639.492188 330.945312 C 626.820312 338.964844 612.050781 345.132812 595.140625 349.542969 C 578.316406 353.863281 560.738281 356.046875 542.359375 356.046875 C 537.703125 356.046875 531.703125 355.628906 524.316406 354.746094 C 517.015625 353.949219 510.511719 353.066406 504.765625 352.019531 L 504.765625 395.503906 C 573.660156 440.289062 653.632812 506.859375 708.933594 485.203125 C 803.257812 448.308594 719.296875 299.089844 668.109375 360.539062 C 662.109375 385.34375 644.945312 386.773438 633.785156 378.671875 C 622.078125 370.402344 621.199219 349.457031 640.542969 341.523438 C 687.785156 322.34375 729.660156 346.433594 748.5 382.03125 C 765.324219 413.886719 764.527344 454.308594 737.925781 478.234375 C 693.15625 518.363281 638.652344 492.421875 595.730469 466.1875 C 497.964844 406.5 357.363281 295.941406 300.046875 424.886719 C 262.746094 508.792969 331.308594 598.113281 401.421875 572.171875 C 408.175781 569.613281 414.425781 565.289062 419.796875 558.363281 C 426.132812 526.671875 447.785156 524.113281 462.386719 533.726562 C 477.53125 543.757812 479.964844 570.789062 455.503906 581.15625 C 429.53125 592.152344 389.757812 591.441406 357.113281 580.988281 C 226.664062 539.011719 275.042969 311.007812 440.316406 361.796875 Z M 399.113281 517.4375 L 454.707031 517.4375 L 454.707031 395.082031 C 473 403.351562 490.332031 413.214844 504.765625 421.738281 L 504.765625 517.4375 L 560.359375 517.4375 L 560.359375 524.40625 L 399.113281 524.40625 Z M 399.113281 517.4375 " fill-opacity="1" fill-rule="evenodd"/></g><path fill="#000000" d="M 916.503906 546.363281 L 951.390625 546.363281 L 951.390625 462.808594 C 961.742188 464.855469 972.515625 468.917969 982.8125 473.632812 L 982.8125 546.363281 L 1017.699219 546.363281 L 1017.699219 550.765625 L 916.53125 550.765625 L 916.53125 546.363281 Z M 982.8125 453.191406 C 1030.882812 473.84375 1099 544.398438 1142.691406 527.257812 C 1201.871094 504.089844 1149.191406 410.601562 1117.03125 449.128906 C 1113.308594 464.699219 1102.539062 465.589844 1095.488281 460.503906 C 1088.175781 455.289062 1087.625 442.160156 1099.757812 437.203125 C 1129.429688 425.148438 1155.691406 440.324219 1167.484375 462.601562 C 1178.046875 482.570312 1177.574219 507.890625 1160.851562 522.933594 C 1132.808594 548.039062 1098.632812 531.789062 1071.664062 515.359375 C 1010.308594 477.90625 922.089844 408.585938 886.128906 489.492188 C 862.777344 542.089844 905.757812 598.175781 949.789062 581.847656 C 954.0625 580.222656 957.996094 577.523438 961.296875 573.171875 C 965.28125 553.253906 978.910156 551.628906 988.03125 557.738281 C 997.570312 563.972656 999.0625 580.957031 983.757812 587.457031 C 967.429688 594.375 942.453125 593.878906 922.007812 587.324219 C 846.371094 563.03125 866.417969 439.457031 951.390625 445.539062 L 951.390625 331.453125 L 916.503906 331.453125 L 916.503906 327.050781 L 1096.222656 327.050781 L 1096.222656 381.433594 L 1092.761719 381.433594 C 1090.0625 373.230469 1087.152344 366.074219 1083.957031 359.890625 C 1080.835938 353.730469 1077.035156 348.4375 1072.660156 344.191406 C 1068.257812 339.867188 1063.039062 336.667969 1056.960938 334.574219 C 1050.851562 332.476562 1043.539062 331.453125 1034.945312 331.453125 L 982.8125 331.453125 L 982.8125 433.222656 L 1003.257812 433.222656 C 1010.175781 433.222656 1015.996094 432.617188 1020.792969 431.386719 C 1025.667969 430.101562 1029.808594 427.71875 1033.242188 424.285156 C 1036.699219 420.824219 1039.609375 416.160156 1042.046875 410.132812 C 1044.40625 404.183594 1046.789062 396.449219 1049.097656 387.042969 L 1052.558594 387.042969 L 1052.558594 484.824219 L 1051.746094 484.824219 L 1051.011719 484.273438 L 1048.574219 482.648438 C 1047.289062 477.355469 1045.925781 472.167969 1044.589844 467.214844 C 1043.042969 461.527344 1040.789062 456.519531 1037.957031 452.117188 C 1035.179688 447.714844 1031.378906 444.203125 1026.664062 441.554688 C 1021.996094 438.988281 1015.835938 437.625 1008.316406 437.625 L 982.867188 437.625 L 982.867188 453.191406 Z M 982.8125 453.191406 " fill-opacity="1" fill-rule="evenodd"/><g clip-path="url(#95e3dd0d1d)"><g clip-path="url(#a77b6e6b22)"><g clip-path="url(#228c60158b)"><g clip-path="url(#299ba66859)"><path fill="#000000" d="M 136.355469 568.199219 C 136.738281 568.046875 137.117188 567.890625 137.503906 567.757812 C 141.613281 565.929688 144.769531 562.746094 146.710938 558.707031 C 148.296875 555.476562 148.921875 551.953125 148.746094 548.089844 C 148.660156 545.054688 147.871094 541.863281 146.484375 538.886719 C 143.945312 532.871094 139.765625 527.71875 134.066406 523.785156 C 132.265625 522.527344 130.273438 521.328125 128.148438 520.398438 C 123.390625 518.289062 118.945312 517.597656 114.429688 517.824219 C 111.484375 518.09375 108.835938 518.660156 106.257812 519.886719 C 102.199219 521.890625 99.164062 524.824219 97.214844 528.84375 C 95.632812 532.097656 94.96875 536.058594 95.417969 540.050781 C 95.574219 542.175781 95.941406 544.214844 96.671875 546.128906 L 96.886719 546.703125 C 97.117188 547.273438 97.328125 547.847656 97.5625 548.417969 L 97.765625 548.972656 C 99.65625 553.289062 102.417969 557.027344 105.871094 560.285156 C 108.578125 562.742188 111.605469 564.851562 114.847656 566.449219 C 119.40625 568.617188 123.988281 569.691406 128.503906 569.46875 C 131.433594 569.648438 134.054688 569.070312 136.355469 568.199219 " fill-opacity="1" fill-rule="nonzero"/></g></g></g></g><g clip-path="url(#0f7890bf86)"><g clip-path="url(#6b7f0f75b3)"><g clip-path="url(#5b554208b2)"><g clip-path="url(#f1a40def06)"><path fill="#000000" d="M 125.25 506.429688 C 127.808594 510.78125 130.980469 514.3125 134.566406 517.085938 C 138.152344 519.859375 141.648438 521.59375 145.558594 522.570312 C 148.824219 523.523438 152.054688 523.636719 155.25 522.90625 L 156.816406 522.445312 C 159.957031 521.523438 162.667969 519.871094 164.699219 517.359375 C 166.847656 515.242188 168.566406 512.394531 169.777344 509.273438 C 171.488281 504.941406 171.984375 500.117188 171.273438 494.796875 C 170.832031 492.585938 170.394531 490.371094 169.703125 488.023438 C 169.1875 486.261719 168.472656 484.558594 167.757812 482.855469 C 166.441406 479.839844 164.792969 477.132812 162.753906 474.542969 C 159.351562 470.226562 155.394531 466.925781 150.945312 464.835938 C 147.703125 463.234375 144.4375 462.28125 141.207031 462.167969 C 137.078125 461.894531 133.292969 462.796875 129.855469 464.871094 C 126.554688 466.695312 123.992188 469.574219 122.109375 473.320312 C 120.503906 476.558594 119.742188 479.761719 119.347656 483.492188 C 119.128906 487.808594 119.554688 492.152344 120.9375 496.851562 C 121.167969 497.632812 121.59375 498.359375 121.941406 499.53125 C 122.828125 501.824219 123.96875 504.253906 125.25 506.429688 " fill-opacity="1" fill-rule="nonzero"/></g></g></g></g><g clip-path="url(#c47e6928bc)"><g clip-path="url(#940ceb50ed)"><g clip-path="url(#f206df0d1b)"><g clip-path="url(#8cc53b0a02)"><path fill="#000000" d="M 183.660156 499.230469 C 186.183594 502.742188 189.066406 505.296875 192.5625 507.03125 C 197.074219 509.320312 201.769531 510.066406 206.535156 508.875 L 207.710938 508.527344 C 210.0625 507.835938 212.050781 506.613281 214.402344 505.921875 C 217.332031 503.570312 219.699219 500.746094 221.835938 497.140625 C 223.914062 493.335938 225.285156 489.316406 225.957031 485.078125 C 226.953125 479.042969 226.710938 473.160156 225.179688 467.230469 C 224.199219 463.902344 223.023438 460.632812 221.375 457.925781 C 219.183594 454.105469 216.832031 451.179688 213.808594 448.878906 C 208.839844 445.027344 203.324219 443.671875 197.601562 444.503906 C 197.40625 444.5625 197.40625 444.5625 197.210938 444.621094 L 192.699219 445.949219 C 190.265625 447.089844 187.75 448.679688 185.796875 450.746094 C 183.179688 453.429688 180.988281 456.839844 179.359375 460.722656 C 177.59375 464.859375 176.78125 469.351562 176.480469 474.117188 C 176.261719 478.4375 176.882812 482.722656 177.894531 486.890625 C 178.414062 488.652344 178.933594 490.414062 179.648438 492.117188 C 180.847656 494.742188 182.183594 497.113281 183.660156 499.230469 " fill-opacity="1" fill-rule="nonzero"/></g></g></g></g><g clip-path="url(#8d066ffabc)"><g clip-path="url(#5f7b1822c1)"><g clip-path="url(#670de35ea5)"><g clip-path="url(#e374f4a774)"><g clip-path="url(#40821e70c6)"><path fill="#000000" d="M 252.542969 550.847656 C 248.898438 547.878906 244.722656 545.277344 240.074219 543.242188 C 236.832031 541.644531 233.53125 539.851562 230.570312 537.746094 C 227.351562 535.503906 224.273438 533.003906 221.699219 530.785156 L 219.695312 529.035156 C 217.6875 527.285156 215.738281 525.734375 213.730469 523.984375 C 210.652344 521.488281 207.941406 519.523438 205.207031 518.199219 C 200.441406 515.773438 195.4375 514.695312 190.1875 514.960938 C 186.820312 515.105469 183.425781 515.890625 180.289062 516.8125 C 177.347656 517.679688 174.578125 519.132812 172.175781 521.113281 C 169.246094 523.46875 166.9375 526.488281 164.664062 530.34375 C 163.417969 532.628906 162.089844 535.355469 160.878906 538.480469 C 159.664062 541.601562 158.648438 544.664062 157.632812 547.730469 L 157.113281 549.585938 C 155.679688 553.410156 154.363281 557.625 152.539062 561.566406 C 150.992188 564.996094 149.46875 567.785156 147.886719 570.378906 C 145.832031 573.535156 143.894531 577.085938 142.601562 580.65625 C 140.671875 585.691406 139.644531 590.882812 139.402344 595.847656 C 139.34375 599.269531 139.675781 602.574219 140.398438 605.761719 C 141.011719 608.5625 142.070312 611.441406 143.410156 613.808594 C 147.109375 620.589844 152.566406 625.367188 159.914062 627.882812 C 164.191406 629.386719 168.574219 629.800781 173.203125 628.863281 C 173.847656 628.886719 174.242188 628.769531 174.828125 628.597656 L 177.773438 627.730469 C 179.535156 627.210938 181.242188 626.496094 182.558594 625.894531 C 186.253906 623.957031 189.886719 621.824219 193.128906 619.804688 L 193.324219 619.75 C 196.429688 617.984375 199.476562 616.023438 202.636719 614.457031 C 203.953125 613.855469 205.601562 612.945312 207.367188 612.425781 C 209.71875 611.730469 211.878906 611.097656 213.898438 610.714844 C 216.757812 610.300781 220.070312 609.960938 223.632812 609.761719 C 225.320312 609.691406 227.257812 609.761719 228.941406 609.691406 C 231.269531 609.640625 233.796875 609.535156 236.324219 609.429688 C 238.851562 609.328125 241.574219 609.164062 244.320312 608.355469 L 249.027344 606.96875 C 249.417969 606.851562 249.558594 606.597656 249.777344 605.898438 C 250.953125 605.550781 252.269531 604.949219 253.332031 604.210938 C 256.238281 602.503906 258.972656 600.210938 261.28125 597.191406 C 264.398438 593.296875 266.5 588.851562 267.25 584.160156 C 268.082031 579.027344 267.679688 574.039062 265.929688 568.8125 C 264.871094 565.933594 263.300781 562.78125 261.203125 559.996094 C 258.929688 556.621094 256.128906 553.617188 252.542969 550.847656 " fill-opacity="1" fill-rule="nonzero"/></g></g></g></g></g><g clip-path="url(#5e0a41d0eb)"><g clip-path="url(#365d43362f)"><g clip-path="url(#8e9f94907b)"><g clip-path="url(#7e76f2a968)"><path fill="#000000" d="M 271.394531 488.25 C 269.609375 484.652344 266.902344 481.683594 263.792969 479.8125 C 259.976562 477.488281 255.855469 476.660156 251.359375 477.175781 C 248.507812 477.546875 245.996094 478.5 243.351562 479.875 C 239.433594 482.132812 236.09375 485.117188 233.238281 489.464844 C 231.953125 491.398438 230.925781 493.484375 230.09375 495.515625 C 227.4375 501.914062 226.714844 508.507812 227.820312 514.945312 C 228.289062 518.191406 229.351562 521.300781 230.925781 523.902344 C 232.871094 527.242188 235.285156 529.871094 238.386719 531.722656 C 242.210938 534.0625 246.585938 535.03125 251.027344 534.339844 C 251.425781 534.242188 251.832031 534.167969 252.234375 534.089844 C 254.640625 533.574219 257.15625 532.640625 259.503906 530.910156 C 263.421875 528.648438 266.6875 525.261719 269.363281 520.964844 C 271.222656 517.867188 272.609375 514.457031 273.550781 510.929688 C 274.6875 506.320312 274.984375 501.679688 274.234375 497.027344 L 274.125 496.445312 C 273.992188 495.847656 273.878906 495.242188 273.742188 494.640625 L 273.628906 494.039062 C 273.210938 492.035156 272.394531 490.128906 271.394531 488.25 " fill-opacity="1" fill-rule="nonzero"/></g></g></g></g><g fill="#000000" fill-opacity="1"><g transform="translate(538.457659, 538.682679)"><g><path d="M 40.0625 1.921875 C 33.800781 1.921875 28.082031 0.898438 22.90625 -1.140625 C 17.726562 -3.191406 13.601562 -6.359375 10.53125 -10.640625 C 7.46875 -14.921875 5.9375 -20.382812 5.9375 -27.03125 C 5.9375 -39.039062 11.015625 -48.078125 21.171875 -54.140625 C 31.335938 -60.210938 47.210938 -62.925781 68.796875 -62.28125 L 68.796875 -68.796875 C 68.796875 -75.828125 67.804688 -80.617188 65.828125 -83.171875 C 63.847656 -85.734375 60.75 -87.015625 56.53125 -87.015625 C 54.101562 -87.015625 51.867188 -86.660156 49.828125 -85.953125 C 47.785156 -85.253906 46.191406 -84.007812 45.046875 -82.21875 C 43.253906 -79.40625 41.75 -76.976562 40.53125 -74.9375 C 39.320312 -72.894531 37.945312 -71.328125 36.40625 -70.234375 C 34.875 -69.148438 32.515625 -68.609375 29.328125 -68.609375 L 27.40625 -68.609375 C 22.039062 -68.609375 17.726562 -70.078125 14.46875 -73.015625 C 11.207031 -75.953125 10.34375 -80.039062 11.875 -85.28125 C 14.050781 -92.820312 18.972656 -98.441406 26.640625 -102.140625 C 34.304688 -105.847656 45.101562 -107.703125 59.03125 -107.703125 C 87.519531 -107.703125 101.765625 -94.925781 101.765625 -69.375 C 101.765625 -57.875 101.796875 -47.84375 101.859375 -39.28125 C 101.929688 -30.726562 102.09375 -23.191406 102.34375 -16.671875 C 102.601562 -11.304688 101.453125 -7.1875 98.890625 -4.3125 C 96.335938 -1.4375 92.441406 0 87.203125 0 L 85.484375 0 C 75.765625 0 70.523438 -1.53125 69.765625 -4.59375 C 69.503906 -5.363281 69.3125 -6.128906 69.1875 -6.890625 C 69.0625 -7.660156 68.929688 -8.429688 68.796875 -9.203125 C 64.972656 -5.492188 60.566406 -2.710938 55.578125 -0.859375 C 50.597656 0.992188 45.425781 1.921875 40.0625 1.921875 Z M 50.21875 -19.734375 C 54.5625 -19.734375 58.265625 -20.597656 61.328125 -22.328125 C 64.398438 -24.054688 67.019531 -26.515625 69.1875 -29.703125 L 69.1875 -46.953125 C 63.4375 -46.828125 58.066406 -46.378906 53.078125 -45.609375 C 48.097656 -44.847656 44.078125 -43.441406 41.015625 -41.390625 C 37.953125 -39.347656 36.421875 -36.285156 36.421875 -32.203125 C 36.421875 -28.617188 37.597656 -25.644531 39.953125 -23.28125 C 42.316406 -20.914062 45.738281 -19.734375 50.21875 -19.734375 Z M 50.21875 -19.734375 "/></g></g></g><g fill="#000000" fill-opacity="1"><g transform="translate(650.004207, 538.682679)"><g><path d="M 60.75 -23.1875 C 66.375 -23.445312 70.71875 -23.160156 73.78125 -22.328125 C 76.851562 -21.492188 78.582031 -19.097656 78.96875 -15.140625 C 79.34375 -11.054688 78.664062 -7.539062 76.9375 -4.59375 C 75.21875 -1.65625 72.25 0.257812 68.03125 1.15625 C 64.195312 1.914062 59.984375 2.296875 55.390625 2.296875 C 47.460938 2.296875 40.59375 1.082031 34.78125 -1.34375 C 28.96875 -3.769531 24.492188 -7.726562 21.359375 -13.21875 C 18.234375 -18.71875 16.734375 -26.128906 16.859375 -35.453125 C 16.992188 -41.078125 17.0625 -46.953125 17.0625 -53.078125 C 17.0625 -59.210938 17.0625 -65.347656 17.0625 -71.484375 L 17.0625 -81.453125 L 16.859375 -81.453125 C 6.003906 -81.453125 0.578125 -85.539062 0.578125 -93.71875 C 0.578125 -101.894531 3.320312 -105.984375 8.8125 -105.984375 L 16.859375 -105.984375 C 16.859375 -107.648438 16.828125 -109.25 16.765625 -110.78125 C 16.703125 -112.3125 16.671875 -113.90625 16.671875 -115.5625 C 16.671875 -125.019531 21.144531 -131.15625 30.09375 -133.96875 C 35.457031 -135.757812 39.769531 -135.628906 43.03125 -133.578125 C 46.289062 -131.535156 47.921875 -127.960938 47.921875 -122.859375 L 47.921875 -105.984375 L 61.328125 -105.984375 C 72.191406 -105.984375 77.625 -101.957031 77.625 -93.90625 C 77.625 -85.863281 72.703125 -81.84375 62.859375 -81.84375 L 47.921875 -81.640625 C 47.921875 -79.984375 47.882812 -78.320312 47.8125 -76.65625 C 47.75 -75 47.71875 -73.273438 47.71875 -71.484375 C 47.59375 -65.992188 47.53125 -60.5 47.53125 -55 C 47.53125 -49.507812 47.53125 -44.273438 47.53125 -39.296875 C 47.53125 -28.429688 51.9375 -23.0625 60.75 -23.1875 Z M 60.75 -23.1875 "/></g></g></g><g fill="#000000" fill-opacity="1"><g transform="translate(732.418342, 538.682679)"><g><path d="M 40.0625 1.921875 C 33.800781 1.921875 28.082031 0.898438 22.90625 -1.140625 C 17.726562 -3.191406 13.601562 -6.359375 10.53125 -10.640625 C 7.46875 -14.921875 5.9375 -20.382812 5.9375 -27.03125 C 5.9375 -39.039062 11.015625 -48.078125 21.171875 -54.140625 C 31.335938 -60.210938 47.210938 -62.925781 68.796875 -62.28125 L 68.796875 -68.796875 C 68.796875 -75.828125 67.804688 -80.617188 65.828125 -83.171875 C 63.847656 -85.734375 60.75 -87.015625 56.53125 -87.015625 C 54.101562 -87.015625 51.867188 -86.660156 49.828125 -85.953125 C 47.785156 -85.253906 46.191406 -84.007812 45.046875 -82.21875 C 43.253906 -79.40625 41.75 -76.976562 40.53125 -74.9375 C 39.320312 -72.894531 37.945312 -71.328125 36.40625 -70.234375 C 34.875 -69.148438 32.515625 -68.609375 29.328125 -68.609375 L 27.40625 -68.609375 C 22.039062 -68.609375 17.726562 -70.078125 14.46875 -73.015625 C 11.207031 -75.953125 10.34375 -80.039062 11.875 -85.28125 C 14.050781 -92.820312 18.972656 -98.441406 26.640625 -102.140625 C 34.304688 -105.847656 45.101562 -107.703125 59.03125 -107.703125 C 87.519531 -107.703125 101.765625 -94.925781 101.765625 -69.375 C 101.765625 -57.875 101.796875 -47.84375 101.859375 -39.28125 C 101.929688 -30.726562 102.09375 -23.191406 102.34375 -16.671875 C 102.601562 -11.304688 101.453125 -7.1875 98.890625 -4.3125 C 96.335938 -1.4375 92.441406 0 87.203125 0 L 85.484375 0 C 75.765625 0 70.523438 -1.53125 69.765625 -4.59375 C 69.503906 -5.363281 69.3125 -6.128906 69.1875 -6.890625 C 69.0625 -7.660156 68.929688 -8.429688 68.796875 -9.203125 C 64.972656 -5.492188 60.566406 -2.710938 55.578125 -0.859375 C 50.597656 0.992188 45.425781 1.921875 40.0625 1.921875 Z M 50.21875 -19.734375 C 54.5625 -19.734375 58.265625 -20.597656 61.328125 -22.328125 C 64.398438 -24.054688 67.019531 -26.515625 69.1875 -29.703125 L 69.1875 -46.953125 C 63.4375 -46.828125 58.066406 -46.378906 53.078125 -45.609375 C 48.097656 -44.847656 44.078125 -43.441406 41.015625 -41.390625 C 37.953125 -39.347656 36.421875 -36.285156 36.421875 -32.203125 C 36.421875 -28.617188 37.597656 -25.644531 39.953125 -23.28125 C 42.316406 -20.914062 45.738281 -19.734375 50.21875 -19.734375 Z M 50.21875 -19.734375 "/></g></g></g><g fill="#000000" fill-opacity="1"><g transform="translate(843.970478, 538.682679)"><g/></g><g transform="translate(891.885669, 538.682679)"><g/></g><g transform="translate(939.80086, 538.682679)"><g/></g><g transform="translate(987.716051, 538.682679)"><g/></g><g transform="translate(1035.631242, 538.682679)"><g/></g></g><g fill="#000000" fill-opacity="1"><g transform="translate(1083.546433, 538.682679)"><g><path d="M 56.34375 1.921875 C 39.226562 1.921875 26.707031 -2.769531 18.78125 -12.15625 C 10.863281 -21.550781 6.90625 -35.707031 6.90625 -54.625 C 6.90625 -90.007812 23.382812 -107.703125 56.34375 -107.703125 C 68.226562 -107.703125 77.78125 -105.210938 85 -100.234375 C 92.21875 -95.253906 97.265625 -88.257812 100.140625 -79.25 C 103.015625 -70.238281 103.8125 -59.796875 102.53125 -47.921875 C 102.28125 -45.867188 101.320312 -44.84375 99.65625 -44.84375 L 38.515625 -44.84375 C 38.773438 -38.332031 39.703125 -33.285156 41.296875 -29.703125 C 42.898438 -26.128906 45.007812 -23.671875 47.625 -22.328125 C 50.25 -20.984375 53.21875 -20.3125 56.53125 -20.3125 C 61.519531 -20.3125 65.484375 -21.144531 68.421875 -22.8125 C 70.847656 -24.46875 72.734375 -26.0625 74.078125 -27.59375 C 75.421875 -29.125 76.859375 -30.398438 78.390625 -31.421875 C 79.921875 -32.453125 82.03125 -32.96875 84.71875 -32.96875 C 89.695312 -32.96875 93.65625 -31.71875 96.59375 -29.21875 C 99.53125 -26.726562 100.296875 -23.3125 98.890625 -18.96875 C 94.421875 -5.039062 80.238281 1.921875 56.34375 1.921875 Z M 38.71875 -62.859375 L 70.140625 -62.859375 C 70.398438 -70.523438 69.316406 -76.273438 66.890625 -80.109375 C 64.460938 -83.941406 60.4375 -85.859375 54.8125 -85.859375 C 49.832031 -85.859375 45.867188 -83.972656 42.921875 -80.203125 C 39.984375 -76.429688 38.582031 -70.648438 38.71875 -62.859375 Z M 38.71875 -62.859375 "/></g></g></g><g fill="#000000" fill-opacity="1"><g transform="translate(1194.32634, 538.682679)"><g><path d="M 26.25 0 C 15.394531 0 9.96875 -5.429688 9.96875 -16.296875 C 10.09375 -25.617188 10.21875 -34.785156 10.34375 -43.796875 C 10.476562 -52.804688 10.546875 -62.035156 10.546875 -71.484375 C 10.546875 -79.921875 10.476562 -88.414062 10.34375 -96.96875 C 10.21875 -105.53125 10.09375 -114.03125 9.96875 -122.46875 C 9.96875 -133.332031 15.394531 -138.765625 26.25 -138.765625 L 27.40625 -138.765625 C 38.269531 -138.765625 43.703125 -133.332031 43.703125 -122.46875 C 43.703125 -114.03125 43.703125 -105.53125 43.703125 -96.96875 C 43.703125 -88.414062 43.632812 -79.921875 43.5 -71.484375 C 43.375 -62.035156 43.34375 -52.804688 43.40625 -43.796875 C 43.46875 -34.785156 43.566406 -25.617188 43.703125 -16.296875 C 43.703125 -5.429688 38.269531 0 27.40625 0 Z M 26.25 0 "/></g></g></g><g fill="#000000" fill-opacity="1"><g transform="translate(1248.182989, 538.682679)"><g><path d="M 27.21875 -119.40625 C 20.1875 -119.40625 15.101562 -120.679688 11.96875 -123.234375 C 8.84375 -125.785156 7.28125 -129.9375 7.28125 -135.6875 C 7.28125 -141.4375 8.84375 -145.585938 11.96875 -148.140625 C 15.101562 -150.703125 20.1875 -151.984375 27.21875 -151.984375 C 34.375 -151.984375 39.484375 -150.703125 42.546875 -148.140625 C 45.609375 -145.585938 47.140625 -141.4375 47.140625 -135.6875 C 47.140625 -129.9375 45.609375 -125.785156 42.546875 -123.234375 C 39.484375 -120.679688 34.375 -119.40625 27.21875 -119.40625 Z M 27.796875 0 C 16.929688 0 11.5 -5.429688 11.5 -16.296875 L 11.5 -32.578125 C 11.375 -46.765625 11.3125 -58.359375 11.3125 -67.359375 C 11.3125 -76.367188 11.242188 -83.878906 11.109375 -89.890625 C 11.109375 -100.617188 16.539062 -105.984375 27.40625 -105.984375 L 27.59375 -105.984375 C 38.457031 -105.984375 43.890625 -100.550781 43.890625 -89.6875 C 43.890625 -83.050781 43.890625 -76.085938 43.890625 -68.796875 C 43.890625 -61.515625 43.828125 -54.9375 43.703125 -49.0625 C 43.566406 -43.570312 43.53125 -38.109375 43.59375 -32.671875 C 43.664062 -27.242188 43.703125 -21.785156 43.703125 -16.296875 C 43.953125 -5.429688 38.648438 0 27.796875 0 Z M 27.796875 0 "/></g></g></g><g fill="#000000" fill-opacity="1"><g transform="translate(1302.614617, 538.682679)"><g><path d="M 22.046875 0 C 11.179688 0 5.75 -2.109375 5.75 -6.328125 C 5.75 -8.492188 6.160156 -10.789062 6.984375 -13.21875 C 7.816406 -15.644531 9.257812 -18.585938 11.3125 -22.046875 L 47.140625 -81.640625 C 43.566406 -81.515625 39.957031 -81.453125 36.3125 -81.453125 C 32.675781 -81.453125 29.132812 -81.453125 25.6875 -81.453125 C 14.820312 -81.453125 9.390625 -85.539062 9.390625 -93.71875 C 9.390625 -101.894531 14.820312 -105.984375 25.6875 -105.984375 L 69.578125 -105.984375 C 80.429688 -105.984375 85.859375 -103.875 85.859375 -99.65625 C 85.859375 -97.488281 85.441406 -95.191406 84.609375 -92.765625 C 83.785156 -90.335938 82.347656 -87.398438 80.296875 -83.953125 L 44.65625 -24.34375 L 72.640625 -24.53125 C 83.492188 -24.53125 88.921875 -20.441406 88.921875 -12.265625 C 88.921875 -4.085938 83.492188 0 72.640625 0 Z M 22.046875 0 "/></g></g></g><g clip-path="url(#628a6fa836)"><g clip-path="url(#ea88d36339)"><g clip-path="url(#b77127fb65)"><g clip-path="url(#900bded5f6)"><path fill="#000000" d="M 203.507812 312.398438 C 203.886719 312.242188 204.265625 312.082031 204.652344 311.945312 C 208.742188 310.074219 211.863281 306.859375 213.765625 302.800781 C 215.316406 299.550781 215.90625 296.023438 215.6875 292.164062 C 215.570312 289.125 214.75 285.941406 213.332031 282.984375 C 210.730469 276.992188 206.5 271.886719 200.757812 268.007812 C 198.949219 266.769531 196.941406 265.589844 194.804688 264.6875 C 190.027344 262.625 185.574219 261.980469 181.0625 262.25 C 178.117188 262.554688 175.476562 263.148438 172.910156 264.402344 C 168.875 266.445312 165.871094 269.414062 163.960938 273.453125 C 162.414062 276.71875 161.789062 280.6875 162.28125 284.675781 C 162.460938 286.796875 162.847656 288.835938 163.601562 290.738281 L 163.816406 291.3125 C 164.054688 291.878906 164.273438 292.453125 164.511719 293.019531 L 164.722656 293.574219 C 166.65625 297.867188 169.457031 301.578125 172.941406 304.800781 C 175.675781 307.230469 178.722656 309.308594 181.984375 310.871094 C 186.566406 312.992188 191.15625 314.019531 195.667969 313.75 C 198.601562 313.898438 201.214844 313.292969 203.507812 312.398438 " fill-opacity="1" fill-rule="nonzero"/></g></g></g></g><g clip-path="url(#a3475f4584)"><g clip-path="url(#978c4a9111)"><g clip-path="url(#a426e388ee)"><g clip-path="url(#c99794cc34)"><path fill="#000000" d="M 191.761719 250.746094 C 194.367188 255.070312 197.574219 258.570312 201.191406 261.304688 C 204.804688 264.039062 208.316406 265.742188 212.238281 266.675781 C 215.511719 267.597656 218.742188 267.675781 221.933594 266.914062 L 223.496094 266.433594 C 226.625 265.480469 229.320312 263.800781 231.324219 261.269531 C 233.449219 259.128906 235.140625 256.261719 236.320312 253.128906 C 237.984375 248.78125 238.429688 243.949219 237.664062 238.636719 C 237.203125 236.429688 236.742188 234.222656 236.027344 231.882812 C 235.488281 230.128906 234.757812 228.429688 234.023438 226.734375 C 232.679688 223.730469 231.003906 221.042969 228.933594 218.476562 C 225.488281 214.195312 221.5 210.933594 217.027344 208.886719 C 213.765625 207.324219 210.492188 206.402344 207.261719 206.324219 C 203.128906 206.09375 199.355469 207.035156 195.9375 209.144531 C 192.65625 211 190.125 213.90625 188.28125 217.671875 C 186.710938 220.925781 185.980469 224.136719 185.625 227.871094 C 185.449219 232.191406 185.921875 236.527344 187.351562 241.210938 C 187.589844 241.992188 188.023438 242.714844 188.382812 243.882812 C 189.292969 246.167969 190.460938 248.582031 191.761719 250.746094 " fill-opacity="1" fill-rule="nonzero"/></g></g></g></g><g clip-path="url(#521b185dc9)"><g clip-path="url(#20f95969cc)"><g clip-path="url(#973a908843)"><g clip-path="url(#50b5b0514e)"><path fill="#000000" d="M 250.097656 242.945312 C 252.65625 246.429688 255.566406 248.953125 259.078125 250.652344 C 263.613281 252.894531 268.316406 253.589844 273.070312 252.351562 L 274.242188 251.992188 C 276.585938 251.273438 278.558594 250.03125 280.90625 249.316406 C 283.8125 246.933594 286.148438 244.085938 288.246094 240.457031 C 290.285156 236.632812 291.617188 232.601562 292.246094 228.355469 C 293.175781 222.308594 292.875 216.429688 291.28125 210.515625 C 290.269531 207.199219 289.058594 203.941406 287.382812 201.25 C 285.152344 197.453125 282.769531 194.554688 279.722656 192.285156 C 274.710938 188.480469 269.183594 187.183594 263.472656 188.078125 C 263.277344 188.136719 263.277344 188.136719 263.082031 188.195312 L 258.582031 189.570312 C 256.160156 190.738281 253.664062 192.355469 251.734375 194.4375 C 249.140625 197.152344 246.984375 200.585938 245.394531 204.484375 C 243.671875 208.636719 242.910156 213.136719 242.660156 217.90625 C 242.480469 222.230469 243.148438 226.503906 244.207031 230.664062 C 244.742188 232.417969 245.277344 234.175781 246.011719 235.871094 C 247.234375 238.484375 248.597656 240.84375 250.097656 242.945312 " fill-opacity="1" fill-rule="nonzero"/></g></g></g></g><g clip-path="url(#e97f8c2076)"><g clip-path="url(#38cd635c5a)"><g clip-path="url(#ab53cd7595)"><g clip-path="url(#9115d5cbd3)"><g clip-path="url(#effdc08ac4)"><path fill="#000000" d="M 319.507812 293.84375 C 315.832031 290.914062 311.632812 288.359375 306.960938 286.371094 C 303.703125 284.804688 300.386719 283.046875 297.402344 280.972656 C 294.160156 278.761719 291.054688 276.296875 288.460938 274.101562 L 286.4375 272.375 C 284.410156 270.644531 282.445312 269.113281 280.421875 267.386719 C 277.316406 264.921875 274.585938 262.984375 271.839844 261.6875 C 267.050781 259.3125 262.03125 258.285156 256.785156 258.609375 C 253.417969 258.785156 250.035156 259.605469 246.90625 260.558594 C 243.972656 261.457031 241.21875 262.9375 238.839844 264.945312 C 235.933594 267.328125 233.65625 270.371094 231.421875 274.253906 C 230.199219 276.546875 228.902344 279.292969 227.722656 282.425781 C 226.542969 285.558594 225.558594 288.632812 224.574219 291.710938 L 224.070312 293.570312 C 222.679688 297.410156 221.40625 301.636719 219.625 305.597656 C 218.113281 309.046875 216.617188 311.851562 215.0625 314.457031 C 213.039062 317.636719 211.140625 321.207031 209.882812 324.789062 C 208.003906 329.84375 207.03125 335.046875 206.839844 340.015625 C 206.816406 343.433594 207.183594 346.734375 207.941406 349.917969 C 208.582031 352.710938 209.671875 355.578125 211.035156 357.933594 C 214.804688 364.675781 220.308594 369.394531 227.683594 371.835938 C 231.976562 373.296875 236.363281 373.660156 240.980469 372.675781 C 241.628906 372.691406 242.019531 372.574219 242.605469 372.394531 L 245.539062 371.496094 C 247.296875 370.960938 248.996094 370.226562 250.308594 369.613281 C 253.980469 367.636719 257.589844 365.464844 260.8125 363.414062 L 261.007812 363.355469 C 264.09375 361.558594 267.121094 359.566406 270.265625 357.964844 C 271.574219 357.351562 273.214844 356.425781 274.972656 355.886719 C 277.320312 355.167969 279.46875 354.511719 281.484375 354.109375 C 284.34375 353.664062 287.648438 353.292969 291.210938 353.058594 C 292.894531 352.96875 294.835938 353.015625 296.519531 352.929688 C 298.847656 352.855469 301.375 352.726562 303.898438 352.59375 C 306.425781 352.460938 309.144531 352.269531 311.882812 351.433594 L 316.574219 350 C 316.964844 349.878906 317.101562 349.625 317.3125 348.921875 C 318.488281 348.5625 319.796875 347.949219 320.847656 347.199219 C 323.738281 345.460938 326.449219 343.140625 328.726562 340.097656 C 331.804688 336.171875 333.859375 331.703125 334.5625 327.003906 C 335.339844 321.859375 334.886719 316.878906 333.082031 311.671875 C 331.992188 308.804688 330.390625 305.664062 328.261719 302.902344 C 325.957031 299.550781 323.125 296.578125 319.507812 293.84375 " fill-opacity="1" fill-rule="nonzero"/></g></g></g></g></g><g clip-path="url(#db61510177)"><g clip-path="url(#cb1d67f809)"><g clip-path="url(#54b83878ac)"><g clip-path="url(#46e35c270d)"><path fill="#000000" d="M 337.710938 231.058594 C 335.890625 227.476562 333.152344 224.535156 330.023438 222.695312 C 326.183594 220.414062 322.054688 219.628906 317.5625 220.191406 C 314.714844 220.589844 312.210938 221.570312 309.585938 222.96875 C 305.691406 225.269531 302.378906 228.285156 299.570312 232.667969 C 298.304688 234.609375 297.300781 236.710938 296.492188 238.75 C 293.898438 245.171875 293.246094 251.773438 294.417969 258.199219 C 294.917969 261.441406 296.015625 264.539062 297.617188 267.125 C 299.59375 270.445312 302.035156 273.046875 305.15625 274.867188 C 309.003906 277.167969 313.390625 278.089844 317.824219 277.355469 C 318.222656 277.253906 318.625 277.171875 319.027344 277.09375 C 321.429688 276.550781 323.9375 275.59375 326.261719 273.835938 C 330.15625 271.535156 333.386719 268.117188 336.019531 263.789062 C 337.847656 260.671875 339.199219 257.25 340.101562 253.710938 C 341.191406 249.089844 341.441406 244.449219 340.640625 239.804688 L 340.527344 239.222656 C 340.386719 238.625 340.269531 238.023438 340.128906 237.425781 L 340.007812 236.820312 C 339.566406 234.820312 338.730469 232.921875 337.710938 231.058594 " fill-opacity="1" fill-rule="nonzero"/></g></g></g></g></svg>